MoBL_ARMS_module2_4_allmuscles elbow_states	
version=1	
nRows=461	
nColumns=2	
inDegrees=yes	
	
# SIMM Motion File Header:	
name MoBL_ARMS_module2_4_allmuscles elbow_states	
datacolumns 2	
datarows 461	
otherdata 1	
range 3.221250225 3.962955484	
endheader	
time	elbow_flexion
3.221250225	103.6864119
3.222842757	103.8444065
3.224435289	104.0016546
3.22602782	104.1581451
3.227620352	104.3138883
3.229212883	104.4688718
3.230805415	104.6231045
3.232397947	104.776573
3.233990478	104.9292859
3.23558301	105.0812292
3.237175541	105.2324109
3.238768073	105.3828161
3.240360605	105.5324518
3.241953136	105.6813025
3.243545668	105.8293745
3.245138199	105.9766511
3.246730731	106.1231379
3.248323263	106.2688173
3.249915794	106.4136946
3.251508326	106.5577516
3.253100857	106.7009932
3.254693389	106.8434009
3.256285921	106.9849793
3.257878452	107.1257098
3.259470984	107.2655969
3.261063515	107.4046218
3.262656047	107.5427887
3.264248579	107.6800789
3.26584111	107.8164966
3.267433642	107.952023
3.269026173	108.0866621
3.270618705	108.2203952
3.272211237	108.3532259
3.273803768	108.4851358
3.2753963	108.6161284
3.276988831	108.7461854
3.278581363	108.87531
3.280173895	109.0034841
3.281766426	109.1307103
3.283358958	109.256971
3.284951489	109.3822685
3.286544021	109.5065853
3.288136553	109.6299225
3.289729084	109.7522622
3.291321616	109.8736035
3.292914147	109.9939275
3.294506679	110.1132314
3.296099211	110.2314958
3.297691742	110.3487164
3.299284274	110.4648749
3.300876805	110.5799666
3.302469337	110.6939734
3.304061869	110.8068888
3.30576057	110.9261076
3.307459272	111.0440446
3.308760329	111.1334925
3.310061386	111.2221678
3.311362444	111.3100594
3.312927559	111.4147385
3.314492674	111.5182462
3.316800111	111.668692
3.319107547	111.8165195
3.321414983	111.9616881
3.323003397	112.0600493
3.324059807	112.1247517
3.325116217	112.1888685
3.33037715	112.4994331
3.331444799	112.5606468
3.332512447	112.6212412
3.334009153	112.7051311
3.335505858	112.7877816
3.337694852	112.9064132
3.339883846	113.0223516
3.342677268	113.1663466
3.345470689	113.3058732
3.34700115	113.3804067
3.348531611	113.4535818
3.350573369	113.5490809
3.352615127	113.6421463
3.354264413	113.7155402
3.355913699	113.7873383
3.358776142	113.9081642
3.361638586	114.0241869
3.364501029	114.1354252
3.367363473	114.2418948
3.369359188	114.3133228
3.371354903	114.3824619
3.37422265	114.4778353
3.377090397	114.5685632
3.379608586	114.6444392
3.382126776	114.7168113
3.385977233	114.8208015
3.38982769	114.9168765
3.392751429	114.9846583
3.395358197	115.041379
3.397964964	115.094661
3.401666622	115.1644868
3.40536828	115.2275815
3.408178887	115.2710657
3.410989494	115.3108165
3.415434862	115.3661678
3.419412407	115.4080329
3.423389952	115.4428174
3.427367498	115.4707174
3.431345043	115.4919065
3.435322589	115.5066072
3.439300134	115.5150166
3.443277679	115.5173685
3.446093747	115.5154881
3.448909815	115.5108059
3.451830532	115.5031612
3.454751249	115.4928813
3.456875113	115.4838593
3.458998978	115.4736284
3.461924777	115.4576839
3.463892849	115.4458275
3.465860921	115.4331264
3.468282146	115.4164018
3.470703371	115.3985481
3.472462075	115.3849018
3.474220779	115.3707239
3.475979483	115.3560298
3.478145077	115.3372656
3.480310671	115.317785
3.482476265	115.2976308
3.484338341	115.2797749
3.486200417	115.2614645
3.488062493	115.2427075
3.489924568	115.2235316
3.491786644	115.203945
3.49364872	115.1839738
3.495510795	115.1636261
3.497372871	115.1429284
3.499234947	115.1218887
3.501097023	115.1005339
3.502959098	115.0788707
3.504821174	115.0569251
3.50668325	115.0347011
3.508545326	115.0122232
3.510407401	114.9894929
3.512269477	114.9665337
3.514131553	114.9433452
3.515993629	114.9199507
3.517855704	114.8963473
3.51971778	114.8725569
3.521579856	114.8485726
3.523441932	114.824414
3.525304007	114.8000702
3.527166083	114.7755586
3.529028159	114.7508674
3.530678655	114.7288447
3.532329152	114.7066851
3.534477257	114.6776532
3.536081938	114.6558145
3.537686619	114.633856
3.539291299	114.6117709
3.541607787	114.5796759
3.543158953	114.5580345
3.544710119	114.5362824
3.546261285	114.5144156
3.548642257	114.4806395
3.550205742	114.4583151
3.551769226	114.4358855
3.553332711	114.4133472
3.555660573	114.3796022
3.557207351	114.3570505
3.558754129	114.3344069
3.560300907	114.3116691
3.562628431	114.2772924
3.564173248	114.2543652
3.565718066	114.2313611
3.567262883	114.2082783
3.569566113	114.1737321
3.57110117	114.1506171
3.572636227	114.1274411
3.574171283	114.104202
3.576467196	114.0693417
3.577995737	114.0460606
3.579524278	114.022733
3.581052819	113.9993561
3.583334909	113.9643772
3.584853196	113.9410495
3.586371484	113.9176879
3.587889772	113.8942898
3.590165437	113.8591657
3.591676503	113.8358035
3.59318757	113.8124215
3.594698636	113.7890187
3.596964501	113.7539048
3.598465709	113.7306257
3.599966918	113.7073482
3.601468127	113.6840725
3.603730342	113.6490208
3.605225134	113.6258749
3.606719925	113.6027547
3.608214717	113.5796606
3.610473215	113.5448375
3.61196049	113.5219518
3.613447765	113.4991169
3.61493504	113.4763331
3.617195697	113.4418196
3.618677867	113.4192679
3.620160036	113.3967901
3.621642205	113.3743853
3.623906638	113.340313
3.625384953	113.3181679
3.626863268	113.2961107
3.628341582	113.2741375
3.630611709	113.240568
3.632086237	113.2188679
3.633560764	113.1972573
3.635035291	113.1757307
3.637313695	113.1426398
3.638786046	113.1213565
3.640258397	113.1001575
3.641730748	113.0790351
3.644016396	113.0463973
3.64548506	113.0255093
3.646953724	113.0046891
3.648422389	112.9839271
3.650717644	112.9515939
3.652183774	112.9309984
3.653649904	112.9104501
3.655116033	112.8899394
3.657416593	112.8578282
3.658884	112.8373773
3.660351407	112.8169522
3.661818814	112.7965426
3.664113271	112.7646568
3.665579232	112.7442857
3.667045194	112.723917
3.668511155	112.7035408
3.670802826	112.6716696
3.672267152	112.6512781
3.673731478	112.630868
3.675195804	112.6104295
3.677484018	112.5784321
3.678945444	112.5579431
3.680406869	112.537415
3.681868294	112.5168385
3.684153934	112.4845585
3.685611735	112.4638932
3.687069535	112.4431707
3.688527336	112.4223817
3.690811587	112.3896707
3.692265459	112.3687492
3.693719331	112.3477508
3.695173203	112.3266662
3.697451983	112.2934437
3.698901665	112.2721835
3.700351346	112.2508284
3.701801028	112.2293693
3.70407162	112.1955462
3.705518162	112.1738479
3.706964704	112.1520341
3.708411246	112.1300952
3.710665117	112.0956609
3.71210233	112.0735297
3.713539544	112.0512656
3.714976757	112.0288596
3.717216932	111.9936501
3.718649605	111.9709355
3.720082277	111.9480689
3.72151495	111.9250412
3.723732328	111.8890812
3.725154158	111.865806
3.726575989	111.8423649
3.727997819	111.8187506
3.730193961	111.781939
3.731604795	111.7580647
3.733015629	111.734019
3.734426463	111.7097954
3.736602594	111.672088
3.738013337	111.6474109
3.739424081	111.622557
3.740834825	111.5975208
3.74298036	111.5591013
3.744383049	111.5337523
3.745785738	111.5082272
3.747188427	111.4825214
3.749315976	111.4431946
3.75071561	111.4170947
3.752115243	111.390821
3.753514877	111.364369
3.755619969	111.3242573
3.757018955	111.2973767
3.758417941	111.2703251
3.759816927	111.2430989
3.761903462	111.2021765
3.763304544	111.1744801
3.764705625	111.1466168
3.766106707	111.1185832
3.768177632	111.0768448
3.769589585	111.0481759
3.771001538	111.0193437
3.77241349	110.990345
3.77446172	110.9479926
3.775880321	110.9184558
3.777298922	110.888761
3.778717523	110.8589049
3.780749839	110.8158612
3.782181066	110.7853507
3.783612293	110.7546844
3.785043519	110.7238564
3.787058228	110.6801877
3.788539608	110.6478589
3.790020987	110.6153391
3.791502367	110.5826086
3.793507196	110.5379548
3.795101766	110.5021088
3.796696336	110.465952
3.798290906	110.4294546
3.800292564	110.3831326
3.801998688	110.3431624
3.803704812	110.302714
3.805410936	110.2617346
3.807117061	110.2201731
3.809264681	110.1669123
3.811412301	110.112451
3.813559922	110.056604
3.815416405	110.0070944
3.817272887	109.9563227
3.819789913	109.8853036
3.822480822	109.8063393
3.824894617	109.7325805
3.827308412	109.6557832
3.829722208	109.5756978
3.832837082	109.4670782
3.836636014	109.3259156
3.838102186	109.2687219
3.839908604	109.1960876
3.843000449	109.066031
3.844617301	108.9950449
3.846563058	108.9068263
3.848206508	108.8298952
3.849849957	108.7507027
3.851493406	108.6692213
3.852957151	108.5946906
3.854420896	108.5183011
3.855884641	108.4400296
3.857348385	108.359868
3.85881213	108.2777958
3.859971817	108.2114142
3.861131504	108.1438225
3.862823546	108.0430321
3.864021046	107.9701361
3.865218545	107.8959448
3.866416045	107.8204527
3.867613544	107.7436628
3.868811044	107.6655716
3.870008543	107.5861834
3.871206042	107.5054949
3.872403542	107.4235132
3.873601041	107.3402326
3.874565049	107.2722541
3.875529057	107.2034378
3.876967945	107.0991768
3.8779311	107.0283526
3.878894255	106.9567056
3.87985741	106.884235
3.881174302	106.7838259
3.882080267	106.7138605
3.882986232	106.6431788
3.883892197	106.5717802
3.885196451	106.467745
3.886067663	106.397431
3.886938875	106.3264671
3.887810087	106.254853
3.889074127	106.1498041
3.889917049	106.0789989
3.890759971	106.0075987
3.891602893	105.9356033
3.89282581	105.8301056
3.893646048	105.7586513
3.894466286	105.6866473
3.895286524	105.6140936
3.8964693	105.5085161
3.897271086	105.4363042
3.898072872	105.3635816
3.898874658	105.2903481
3.900019511	105.1849069
3.900805779	105.1118958
3.901592047	105.0384083
3.902378316	104.9644441
3.903488206	104.8592381
3.904261919	104.7853437
3.905035631	104.7110026
3.905809344	104.6362145
3.906886931	104.5313213
3.907650911	104.456437
3.908414892	104.3811321
3.909178872	104.3054064
3.91022569	104.2009755
3.910983016	104.1249395
3.911740341	104.0485061
3.912497666	103.9716751
3.913514056	103.8679504
3.914268143	103.7905392
3.915022231	103.7127507
3.915776319	103.6345845
3.916760519	103.5320109
3.917516633	103.4527789
3.918272748	103.3731844
3.919028862	103.2932268
3.919977323	103.1924288
3.92074479	103.1104549
3.921512257	103.0281249
3.922279724	102.9454378
3.923047191	102.8624033
3.923814659	102.7790215
3.924582126	102.695301
3.925349593	102.6112416
3.92611706	102.5268522
3.926884527	102.4421324
3.927651994	102.3570915
3.928419462	102.2717289
3.929186929	102.1860542
3.929954396	102.1000664
3.930721863	102.0137755
3.93148933	101.9271801
3.932256798	101.8402906
3.933024265	101.7531052
3.933791732	101.6656345
3.934559199	101.5778763
3.935326666	101.4898416
3.936094133	101.4015279
3.936861601	101.3129462
3.937629068	101.2240938
3.938396535	101.1349819
3.939164002	101.0456074
3.939931469	100.9559819
3.940698936	100.866102
3.941466404	100.7759792
3.942233871	100.6856101
3.943001338	100.5950063
3.943768805	100.5041641
3.944536272	100.4130954
3.945303739	100.321796
3.946071207	100.2302779
3.946838674	100.1385369
3.947606141	100.046585
3.948373608	99.95441772
3.949141075	99.86204717
3.949908543	99.76946862
3.95067601	99.67669429
3.951443477	99.58371921
3.952210944	99.49055566
3.952978411	99.39719847
3.953745878	99.30365997
3.954513346	99.20993479
3.955280813	99.1160353
3.95604828	99.02195591
3.956815747	98.92770903
3.957583214	98.83328888
3.958350681	98.73870789
3.959118149	98.64396004
3.959885616	98.54905774
3.960653083	98.45399473
3.96142055	98.35878335
3.962188017	98.26341711
3.962955484	98.16790829
